<svg width="50.000000" height="40.000000" viewBox="0 0 50 40" fill="none" xmlns="http://www.w3.org/2000/svg" xmlns:xlink="http://www.w3.org/1999/xlink">
	<desc>
			Created with Pixso.
	</desc>
	<defs/>
	<path id="film icon" d="M47.6562 0L46.875 0L46.875 2.08337C46.875 2.77087 46.3477 3.33337 45.7031 3.33337L41.7969 3.33337C41.1523 3.33337 40.625 2.77087 40.625 2.08337L40.625 0L9.375 0L9.375 2.08337C9.375 2.77087 8.84766 3.33337 8.20312 3.33337L4.29688 3.33337C3.65234 3.33337 3.125 2.77087 3.125 2.08337L3.125 0L2.34375 0C1.04492 0 0 1.11462 0 2.5L0 37.5C0 38.8854 1.04492 40 2.34375 40L3.125 40L3.125 37.9166C3.125 37.2291 3.65234 36.6666 4.29688 36.6666L8.20312 36.6666C8.84766 36.6666 9.375 37.2291 9.375 37.9166L9.375 40L40.625 40L40.625 37.9166C40.625 37.2291 41.1523 36.6666 41.7969 36.6666L45.7031 36.6666C46.3477 36.6666 46.875 37.2291 46.875 37.9166L46.875 40L47.6562 40C48.9551 40 50 38.8854 50 37.5L50 2.5C50 1.11462 48.9551 0 47.6562 0ZM9.375 32.0834C9.375 32.7709 8.84766 33.3334 8.20312 33.3334L4.29688 33.3334C3.65234 33.3334 3.125 32.7709 3.125 32.0834L3.125 27.9166C3.125 27.2291 3.65234 26.6666 4.29688 26.6666L8.20312 26.6666C8.84766 26.6666 9.375 27.2291 9.375 27.9166L9.375 32.0834ZM9.375 22.0834C9.375 22.7709 8.84766 23.3334 8.20312 23.3334L4.29688 23.3334C3.65234 23.3334 3.125 22.7709 3.125 22.0834L3.125 17.9166C3.125 17.2291 3.65234 16.6666 4.29688 16.6666L8.20312 16.6666C8.84766 16.6666 9.375 17.2291 9.375 17.9166L9.375 22.0834ZM9.375 12.0834C9.375 12.7709 8.84766 13.3334 8.20312 13.3334L4.29688 13.3334C3.65234 13.3334 3.125 12.7709 3.125 12.0834L3.125 7.91663C3.125 7.22913 3.65234 6.66663 4.29688 6.66663L8.20312 6.66663C8.84766 6.66663 9.375 7.22913 9.375 7.91663L9.375 12.0834ZM37.5 35.4166C37.5 36.1041 36.9727 36.6666 36.3281 36.6666L13.6719 36.6666C13.0273 36.6666 12.5 36.1041 12.5 35.4166L12.5 22.9166C12.5 22.2291 13.0273 21.6666 13.6719 21.6666L36.3281 21.6666C36.9727 21.6666 37.5 22.2291 37.5 22.9166L37.5 35.4166ZM37.5 17.0834C37.5 17.7709 36.9727 18.3334 36.3281 18.3334L13.6719 18.3334C13.0273 18.3334 12.5 17.7709 12.5 17.0834L12.5 4.58337C12.5 3.89587 13.0273 3.33337 13.6719 3.33337L36.3281 3.33337C36.9727 3.33337 37.5 3.89587 37.5 4.58337L37.5 17.0834ZM46.875 32.0834C46.875 32.7709 46.3477 33.3334 45.7031 33.3334L41.7969 33.3334C41.1523 33.3334 40.625 32.7709 40.625 32.0834L40.625 27.9166C40.625 27.2291 41.1523 26.6666 41.7969 26.6666L45.7031 26.6666C46.3477 26.6666 46.875 27.2291 46.875 27.9166L46.875 32.0834ZM46.875 22.0834C46.875 22.7709 46.3477 23.3334 45.7031 23.3334L41.7969 23.3334C41.1523 23.3334 40.625 22.7709 40.625 22.0834L40.625 17.9166C40.625 17.2291 41.1523 16.6666 41.7969 16.6666L45.7031 16.6666C46.3477 16.6666 46.875 17.2291 46.875 17.9166L46.875 22.0834ZM46.875 12.0834C46.875 12.7709 46.3477 13.3334 45.7031 13.3334L41.7969 13.3334C41.1523 13.3334 40.625 12.7709 40.625 12.0834L40.625 7.91663C40.625 7.22913 41.1523 6.66663 41.7969 6.66663L45.7031 6.66663C46.3477 6.66663 46.875 7.22913 46.875 7.91663L46.875 12.0834Z" fill="#FFFFFF" fill-opacity="1.000000" fill-rule="nonzero"/>
</svg>
